# xmcd
#
# Track frame offsets:
#	150
#	16247
#	32991
#	56997
#	72779
#	91448
#	110103
#	128873
#	145691
#	166038
#	184397
#
# Disc length: 2675 seconds
# Revision: 0
# Processed by: cddbd v1.5.2PL0 Copyright (c) Steve Scherf et al.
# Submitted via: dBpowerAMP V12.0
#
DISCID=9c0a710b
DTITLE=Tyler Mac - Already Home
DYEAR=2012
DGENRE=Blues
TTITLE0=Already Home
TTITLE1=Champagne and Reefer
TTITLE2=Let It Burn
TTITLE3=Dark Side Of Life
TTITLE4=Fuss N Fight
TTITLE5=Mean That Much
TTITLE6=Little Girl Eyes
TTITLE7=Simple As That
TTITLE8=Leave My Little Girl Alone
TTITLE9=Matter Of Time
TTITLE10=Save Me From Myself
EXTD=
EXTT0=
EXTT1=
EXTT2=
EXTT3=
EXTT4=
EXTT5=
EXTT6=
EXTT7=
EXTT8=
EXTT9=
EXTT10=
PLAYORDER=
